<?xml version="1.0" standalone="no"?>
<!DOCTYPE svg PUBLIC "-//W3C//DTD SVG 20010904//EN"
 "http://www.w3.org/TR/2001/REC-SVG-20010904/DTD/svg10.dtd">
<svg version="1.0" xmlns="http://www.w3.org/2000/svg"
 width="607.000000pt" height="1080.000000pt" viewBox="0 0 607.000000 1080.000000"
 preserveAspectRatio="xMidYMid meet">
<metadata>
Created by potrace 1.16, written by Peter Selinger 2001-2019
</metadata>
<g transform="translate(0.000000,1080.000000) scale(0.100000,-0.100000)"
fill="#000000" stroke="none">
<path d="M1 10440 c0 -269 3 -360 11 -360 9 0 9 -3 0 -12 -16 -16 -15 -90 2
-113 13 -19 11 -50 -6 -72 -6 -8 -4 -10 9 -8 10 1 17 8 15 16 -3 10 0 10 12 0
9 -8 15 -26 13 -45 -1 -20 2 -30 10 -29 19 4 16 -3 -11 -32 -14 -15 -30 -24
-35 -20 -16 9 -13 25 3 25 8 0 16 6 19 13 5 14 -15 47 -30 47 -12 0 -15 -98
-3 -105 10 -6 50 13 62 29 4 6 13 5 21 -3 13 -10 16 -8 22 9 5 17 10 19 21 9
8 -6 14 -8 14 -5 0 4 9 2 20 -4 16 -9 22 -7 27 7 4 10 14 23 23 30 10 7 17 20
16 30 -1 23 -26 58 -46 66 -8 3 3 6 25 6 l41 1 -1 128 c0 70 3 135 8 146 6 13
5 21 -4 27 -10 6 -5 9 16 9 21 0 26 3 16 9 -13 8 -14 22 -10 91 1 14 8 46 17
72 12 37 13 52 4 72 -6 14 -9 33 -6 41 6 14 8 14 19 -1 11 -15 12 -14 11 7 -1
13 -5 27 -11 31 -6 5 -3 8 7 8 14 0 14 4 5 25 l-12 24 -5 -22 c-3 -12 -15 -24
-25 -26 -11 -2 -17 0 -13 4 4 5 3 14 -3 22 -9 9 -8 13 0 13 20 0 48 37 55 73
4 19 13 38 21 40 9 4 14 20 13 46 l0 41 -179 0 -178 0 0 -360z"/>
<path d="M485 10780 c3 -11 2 -20 -3 -20 -6 0 -9 -33 -8 -77 1 -43 -1 -93 -5
-111 -8 -37 -1 -74 12 -66 5 3 9 0 9 -5 0 -6 -4 -11 -9 -11 -5 0 -5 -16 -1
-37 8 -35 8 -36 -6 -18 -13 17 -16 18 -24 5 -13 -20 -12 -38 0 -42 6 -2 2 -20
-10 -43 -22 -43 -26 -80 -10 -90 6 -4 7 -11 4 -17 -5 -8 -1 -9 10 -5 10 4 15
3 11 -3 -3 -6 -13 -10 -21 -10 -12 0 -13 -10 -8 -52 4 -29 11 -61 16 -70 5
-10 6 -19 3 -19 -3 -1 -9 -3 -15 -4 -5 -1 -17 -3 -25 -4 -8 0 -15 -9 -15 -19
0 -10 -6 -24 -12 -31 -10 -11 -10 -14 0 -18 6 -3 12 -10 12 -18 0 -7 7 -18 15
-25 12 -10 15 -9 15 6 0 13 3 15 11 7 8 -8 8 -17 -1 -32 -6 -12 -8 -26 -5 -31
3 -6 0 -10 -8 -10 -14 0 -27 -20 -27 -40 0 -4 7 -7 16 -6 10 0 18 -8 21 -24 3
-24 3 -24 -11 -5 -15 20 -15 20 -10 -1 3 -12 -1 -35 -9 -51 -11 -21 -13 -33
-5 -48 8 -14 8 -20 0 -23 -15 -5 -16 -34 -2 -48 13 -13 -9 -64 -27 -64 -7 0
-13 -4 -13 -9 0 -15 18 -23 25 -11 4 6 11 7 17 4 7 -5 5 -12 -7 -20 -14 -11
-16 -18 -7 -43 9 -25 8 -31 -3 -31 -7 0 -15 5 -17 12 -3 9 -6 9 -12 0 -4 -7 4
-23 18 -37 32 -32 33 -68 5 -94 -21 -19 -21 -21 -5 -55 21 -44 20 -53 -4 -68
-24 -15 -26 -36 -5 -44 13 -5 13 -9 3 -22 -10 -12 -10 -14 0 -8 7 4 15 1 19
-10 4 -12 -2 -23 -20 -36 -36 -26 -34 -54 3 -73 17 -9 30 -20 30 -25 0 -15
-16 -12 -30 5 -19 23 -30 18 -30 -16 0 -23 4 -30 14 -26 8 3 16 -2 19 -14 5
-20 -7 -26 -18 -9 -4 6 -11 8 -16 5 -14 -9 -11 -35 6 -52 17 -16 12 -33 -11
-33 -8 0 -14 -4 -14 -9 0 -5 -3 -17 -6 -26 -4 -10 -2 -15 6 -13 7 2 15 -3 17
-11 4 -10 -1 -11 -18 -7 -23 7 -23 7 -5 -8 11 -9 14 -16 8 -16 -18 0 -14 -27
5 -34 10 -4 13 -10 8 -14 -6 -4 -11 -18 -13 -32 -1 -17 1 -21 7 -12 6 11 9 10
15 -3 9 -24 8 -25 -15 -25 -16 0 -20 -5 -17 -22 2 -13 8 -22 14 -21 5 1 11
-17 11 -40 2 -28 -1 -37 -7 -27 -11 17 -23 8 -27 -21 -2 -14 3 -23 17 -26 20
-5 29 -43 11 -43 -6 0 -6 -12 -1 -30 5 -19 5 -28 -1 -25 -5 4 -9 14 -9 23 -1
15 -2 15 -15 -2 -26 -35 -17 -63 18 -57 4 0 7 -3 7 -9 0 -5 -11 -10 -25 -10
-18 0 -25 -5 -25 -19 0 -10 7 -21 15 -25 19 -7 19 -36 0 -36 -19 0 -20 -39 -1
-46 8 -3 16 -14 19 -26 5 -19 5 -19 -13 -3 -18 16 -19 16 -26 -10 -5 -20 -2
-31 10 -40 25 -19 20 -38 -9 -32 -28 5 -29 -10 -2 -27 13 -8 20 -6 31 9 9 11
16 15 16 9 0 -5 -5 -15 -11 -21 -6 -6 -11 -33 -11 -58 1 -38 -2 -46 -14 -41
-10 4 -13 2 -8 -6 5 -7 2 -9 -8 -5 -12 4 -14 1 -11 -14 3 -10 12 -19 19 -19
20 0 13 -64 -10 -89 -18 -20 -13 -47 6 -35 7 4 9 -9 7 -40 -2 -25 0 -48 6 -50
5 -2 7 -7 3 -11 -4 -4 -14 -3 -21 3 -17 14 -27 6 -27 -21 0 -13 5 -17 15 -13
9 3 15 0 15 -8 0 -8 6 -16 13 -19 6 -2 0 -8 -15 -12 -31 -8 -36 -22 -13 -31
22 -9 18 -41 -5 -47 -23 -6 -27 -27 -5 -27 19 0 19 -34 0 -50 -11 -9 -12 -17
-5 -30 14 -26 12 -57 -3 -64 -9 -5 -9 -7 1 -12 20 -10 14 -61 -13 -92 -24 -28
-24 -30 -5 -35 16 -4 18 -11 13 -43 -3 -22 -9 -46 -13 -54 -12 -24 1 -131 16
-137 8 -3 11 -10 8 -15 -4 -6 -10 -5 -15 3 -6 10 -11 11 -19 3 -7 -7 -4 -22 9
-48 19 -37 19 -38 1 -33 -17 4 -18 1 -13 -27 3 -17 10 -32 15 -34 17 -7 7 -20
-12 -15 -21 6 -29 -20 -10 -32 17 -10 11 -21 -16 -34 l-27 -12 22 -20 c26 -25
27 -49 1 -49 -21 0 -28 -16 -10 -22 6 -2 13 -25 15 -52 3 -27 10 -55 16 -62 9
-10 9 -14 0 -14 -6 0 -11 5 -11 10 0 6 -9 10 -20 10 -23 0 -27 -25 -6 -33 17
-7 12 -84 -8 -115 -4 -7 -3 -19 3 -26 6 -7 8 -28 5 -48 -5 -29 -10 -35 -28
-34 -18 1 -21 6 -18 25 3 16 -1 29 -13 38 -28 20 -36 16 -29 -14 4 -22 3 -25
-5 -13 -9 12 -11 11 -11 -8 0 -14 9 -26 25 -34 14 -6 25 -17 25 -25 0 -7 7
-13 15 -13 8 0 15 -4 15 -10 0 -17 -22 -11 -41 12 -15 17 -19 18 -19 5 0 -9 6
-20 14 -24 8 -5 18 -23 21 -42 3 -19 8 -38 10 -42 3 -3 -2 -12 -10 -19 -8 -7
-12 -16 -9 -21 3 -5 -4 -9 -15 -9 -10 0 -21 -6 -24 -12 -4 -14 12 -48 27 -59
5 -4 -5 -10 -23 -14 -17 -3 -31 -10 -31 -15 0 -12 30 -34 37 -27 3 4 12 -5 20
-20 9 -18 10 -30 3 -37 -7 -7 -10 -5 -10 7 0 12 -8 17 -29 17 -30 0 -41 -18
-41 -72 0 -22 5 -27 27 -30 39 -4 42 -28 4 -28 -17 0 -31 -1 -32 -2 0 -2 -3
-25 -5 -51 -5 -43 -3 -49 15 -54 27 -7 27 -23 1 -23 -17 0 -20 -7 -20 -49 0
-41 4 -51 20 -56 21 -7 28 -25 9 -25 -5 0 -7 -4 -4 -10 3 -5 -1 -10 -9 -10 -9
0 -16 -7 -16 -15 0 -8 9 -15 19 -15 10 0 22 -7 25 -16 9 -23 8 -24 -19 -24
-18 0 -25 -5 -25 -19 0 -11 6 -22 12 -25 11 -5 11 -7 0 -12 -16 -7 -16 -61 1
-68 9 -5 9 -7 0 -12 -10 -4 -13 -267 -13 -1265 0 -1130 2 -1259 15 -1259 9 0
35 -9 57 -20 23 -11 47 -20 53 -20 17 0 135 -90 135 -104 0 -6 9 -17 20 -24
11 -7 20 -21 20 -32 0 -11 7 -20 15 -20 10 0 14 -8 11 -22 -2 -13 1 -28 6 -34
5 -7 10 -54 11 -105 1 -52 6 -97 11 -101 6 -4 5 -35 -3 -80 -26 -151 -32 -215
-28 -273 3 -33 10 -61 16 -63 6 -2 11 -11 12 -20 0 -12 3 -11 9 5 11 28 9 123
-2 123 -5 0 -6 10 -3 21 4 12 9 51 10 87 2 35 8 69 14 73 6 5 9 6 6 3 -2 -4 2
-16 10 -28 8 -11 15 -33 15 -48 0 -16 5 -28 11 -28 6 0 9 -6 6 -13 -2 -7 -1
-35 3 -62 5 -31 4 -55 -2 -63 -10 -12 -9 -13 11 -16 19 -2 25 -17 11 -26 -8
-5 -15 -15 -16 -22 -3 -34 -5 -38 -23 -38 -13 0 -21 8 -23 25 l-3 25 -12 -26
c-11 -23 -10 -27 8 -31 17 -5 20 -11 15 -35 -4 -20 -2 -27 6 -22 7 5 9 0 6
-14 -4 -12 -1 -25 4 -29 14 -8 -19 -33 -44 -33 -10 0 -18 -6 -18 -14 0 -18 31
-30 41 -15 7 12 12 1 24 -58 4 -18 11 -33 16 -33 5 0 9 -7 9 -15 0 -17 -40
-95 -41 -80 0 6 -5 -3 -10 -20 -6 -22 -5 -31 6 -38 20 -11 19 -28 0 -21 -12 5
-14 0 -9 -24 4 -20 1 -38 -10 -53 -9 -13 -16 -28 -16 -34 0 -5 4 -4 9 4 5 7
14 10 21 6 9 -6 9 -10 -1 -17 -12 -7 -11 -11 2 -20 15 -10 14 -13 -1 -28 -9
-9 -29 -20 -44 -24 -32 -8 -33 -29 -4 -58 13 -13 23 -38 25 -60 3 -32 2 -37
-13 -31 -12 5 -15 3 -9 -6 4 -8 2 -17 -6 -22 -12 -8 -12 -11 1 -19 12 -8 11
-10 -7 -10 -13 0 -23 -4 -23 -10 0 -5 4 -10 9 -10 5 0 7 -9 4 -20 -3 -11 -9
-20 -13 -20 -5 0 -17 -3 -27 -6 -17 -5 -17 -5 -1 9 20 16 6 37 -25 37 -16 0
-17 -3 -7 -15 7 -8 9 -15 4 -15 -5 -1 2 -10 16 -21 24 -21 36 -49 19 -49 -5 0
-9 -6 -9 -13 0 -7 -6 -19 -12 -25 -7 -7 -14 -36 -15 -64 -1 -28 -6 -55 -12
-61 -12 -12 -15 -38 -3 -35 6 3 13 -7 11 -14 0 -2 -2 -13 -5 -26 -2 -13 -11
-30 -19 -38 -8 -9 -15 -30 -15 -49 0 -49 -9 -65 -37 -65 -32 0 -28 -30 7 -47
34 -17 32 -38 -2 -36 -31 2 -35 -8 -13 -31 19 -19 19 -35 0 -42 -10 -4 -13
-13 -10 -25 4 -11 2 -19 -5 -19 -8 0 -10 -9 -6 -24 3 -14 2 -27 -4 -31 -5 -3
-8 -19 -6 -35 2 -17 -1 -30 -6 -30 -6 0 -8 -10 -4 -23 4 -18 1 -23 -15 -24
-28 -2 -35 -11 -21 -25 8 -8 7 -14 -3 -25 -8 -7 -17 -40 -21 -73 -6 -56 -17
-76 -26 -48 -3 9 -9 8 -22 -5 -17 -16 133 -17 3018 -17 l3036 0 0 4165 c0
2957 -4 4165 -11 4165 -7 0 -10 -19 -7 -50 2 -41 0 -50 -12 -47 -8 1 -14 10
-12 19 1 9 -2 19 -8 23 -5 3 -10 17 -10 30 0 12 -6 25 -14 28 -17 7 -29 93
-15 118 9 18 12 17 42 -20 18 -22 35 -40 40 -40 4 -1 7 541 7 1204 l0 1205
-2632 0 c-1696 0 -2628 -4 -2618 -10 13 -8 13 -13 -1 -38 -9 -16 -15 -42 -13
-58 16 -119 19 -445 4 -454 -10 -6 -21 -150 -10 -150 4 0 4 -21 -1 -46 -5 -25
-5 -53 -1 -62 5 -10 7 -48 6 -87 -1 -38 2 -76 8 -82 7 -9 7 -13 0 -13 -13 0
-23 -38 -11 -46 11 -6 12 -54 2 -54 -5 0 -9 -41 -11 -90 -1 -50 1 -89 5 -88 5
2 8 -2 8 -7 0 -5 -3 -9 -7 -8 -6 2 -15 -87 -17 -164 -1 -18 5 -48 13 -67 8
-18 10 -39 6 -46 -4 -7 -3 -28 2 -47 5 -19 7 -37 4 -41 -3 -3 -6 1 -6 9 0 11
-2 11 -10 -1 -14 -21 -12 -36 5 -53 13 -13 13 -16 0 -21 -18 -7 -20 -52 -2
-59 9 -4 9 -8 1 -14 -18 -13 -29 -180 -13 -199 10 -13 10 -20 -5 -45 -14 -23
-15 -36 -7 -66 7 -24 7 -41 1 -47 -14 -14 -12 -82 2 -105 9 -15 9 -26 1 -44
-10 -20 -9 -26 3 -31 20 -8 17 -29 -6 -44 -17 -10 -18 -16 -10 -32 6 -11 17
-20 25 -20 8 0 15 -4 15 -9 0 -4 -11 -6 -25 -3 -18 3 -25 0 -25 -11 0 -26 12
-47 26 -47 20 0 17 -21 -4 -27 -19 -4 -23 -38 -9 -60 5 -7 4 -13 -1 -13 -5 0
-12 -55 -15 -122 -4 -82 -10 -124 -19 -130 -11 -6 -11 -10 0 -16 18 -12 12
-108 -5 -104 -14 2 -15 -3 -15 -68 1 -67 1 -67 22 -42 l19 23 -2 -51 c-1 -32
-6 -50 -14 -50 -7 0 -13 5 -13 10 0 6 -4 10 -10 10 -17 0 -11 -28 8 -39 9 -6
13 -11 9 -11 -4 0 -3 -10 4 -22 9 -18 9 -20 -4 -15 -26 10 -28 -23 -5 -64 12
-21 19 -42 15 -45 -4 -4 -10 3 -15 15 -7 20 -10 21 -21 8 -10 -13 -9 -17 8
-26 16 -9 20 -21 19 -61 0 -28 -4 -47 -9 -44 -5 3 -9 0 -9 -6 0 -6 -4 -8 -10
-5 -5 3 -10 -1 -10 -9 0 -9 5 -15 12 -13 15 3 21 -50 6 -59 -18 -12 -28 19
-28 94 0 62 2 72 18 72 15 1 15 2 -2 12 -15 9 -22 7 -33 -8 -15 -21 -17 -60
-3 -69 15 -10 12 -35 -5 -35 -23 0 -20 -71 5 -98 24 -25 25 -32 5 -32 -24 0
-32 -28 -21 -73 6 -23 15 -47 19 -54 4 -6 2 -15 -3 -18 -7 -4 -9 -19 -5 -35 3
-16 2 -31 -4 -35 -15 -8 -14 -48 1 -63 9 -9 8 -12 -5 -12 -21 0 -21 -16 -2
-54 14 -27 12 -51 -4 -41 -14 8 -22 -140 -9 -175 7 -21 7 -34 1 -39 -20 -12
-25 -69 -9 -93 18 -25 21 -58 6 -58 -15 0 -12 -64 5 -96 13 -26 13 -30 -2 -41
-11 -9 -13 -16 -6 -25 13 -17 25 -50 15 -44 -4 2 -16 -2 -27 -10 -17 -12 -18
-17 -7 -35 9 -14 10 -24 3 -33 -6 -7 -6 -17 -1 -26 14 -22 12 -60 -3 -60 -9 0
-12 -10 -9 -30 2 -17 10 -30 18 -30 23 0 16 -18 -8 -22 -24 -3 -24 -7 -13 -78
3 -14 9 -26 15 -28 7 -3 3 -10 -8 -18 -16 -11 -18 -22 -14 -61 2 -26 9 -51 14
-54 5 -4 3 -9 -5 -12 -25 -9 -29 -77 -7 -119 16 -31 17 -38 5 -38 -10 0 -15
-11 -15 -32 0 -18 -3 -58 -5 -88 -3 -30 -5 -66 -5 -80 0 -20 -2 -22 -10 -10
-7 10 -8 -1 -3 -35 3 -27 11 -53 16 -57 6 -4 4 -13 -7 -23 -17 -17 -18 -68 -1
-107 4 -11 3 -18 -4 -18 -7 0 -11 -21 -11 -53 0 -30 -3 -56 -6 -60 -3 -3 -8
-83 -9 -177 -2 -116 -7 -175 -15 -185 -7 -8 -9 -15 -4 -15 4 0 -1 -7 -12 -15
-18 -15 -18 -15 0 -29 16 -13 17 -22 8 -93 -6 -43 -14 -91 -17 -108 -5 -23 -4
-26 4 -15 15 21 14 8 -4 -34 -11 -26 -12 -36 -3 -36 6 0 -4 -11 -23 -25 -22
-17 -44 -25 -64 -23 -28 3 -30 6 -28 38 2 19 -5 52 -14 73 -15 34 -15 38 0 50
19 15 24 63 9 97 -8 19 -7 28 4 36 8 6 14 17 14 24 0 9 -3 10 -13 1 -20 -16
-27 -3 -16 26 7 19 6 30 -5 42 -13 14 -12 19 4 39 10 12 23 22 29 22 6 0 11
14 11 30 0 19 -5 30 -14 30 -10 0 -13 14 -12 53 1 36 5 51 14 50 6 -2 12 3 12
10 0 9 3 8 9 -2 6 -8 11 7 16 44 5 42 3 60 -6 66 -10 6 -10 11 -1 21 10 13 14
81 13 212 -1 22 -6 43 -13 48 -10 6 -10 8 0 8 15 0 32 39 25 57 -3 7 -9 10
-14 7 -14 -8 -10 9 6 30 18 24 19 53 2 59 -9 3 -9 7 1 19 16 19 12 59 -8 75
-13 11 -13 12 3 13 18 0 25 40 7 40 -5 0 -7 7 -3 16 3 8 11 13 19 10 10 -4 12
8 8 55 -4 38 -2 59 5 59 6 0 11 4 11 10 0 5 -7 7 -17 3 -13 -5 -15 -2 -9 18 5
13 10 40 13 59 3 19 10 41 16 48 8 10 7 16 -2 22 -10 5 -11 21 -6 59 6 42 4
52 -9 57 -9 3 -16 10 -16 15 0 14 28 11 34 -3 3 -7 3 2 0 21 -4 19 -13 41 -20
49 -14 14 -19 32 -8 32 3 0 15 -10 25 -22 l20 -23 -7 25 c-10 35 -12 63 -5 75
3 6 6 24 7 40 1 17 6 47 12 67 6 23 6 40 0 46 -13 13 -18 131 -6 138 5 4 7 21
3 41 -5 29 -3 35 13 40 17 4 18 9 10 46 -5 23 -13 44 -19 45 -5 2 -9 13 -9 23
0 11 5 17 10 14 6 -3 10 1 10 10 0 9 -5 13 -10 10 -6 -4 -10 5 -10 19 0 14 5
26 11 26 7 0 9 10 4 27 -5 23 -4 25 9 14 14 -12 16 -10 16 8 0 12 -4 31 -10
41 -5 10 -7 40 -3 66 5 37 8 43 14 29 15 -40 10 20 -6 65 -18 50 -18 50 -7 50
5 0 15 -11 22 -25 7 -14 15 -24 16 -22 4 4 -19 68 -29 85 -5 7 -3 14 5 17 20
8 19 332 -2 346 -13 9 -12 10 3 5 20 -6 22 6 6 36 -9 17 -9 20 3 15 11 -4 14
1 10 21 -5 24 -6 24 -18 7 -17 -23 -18 -12 -2 32 10 28 10 36 -2 43 -11 7 -11
14 -3 32 6 14 8 37 6 53 -4 19 -2 26 6 21 8 -5 11 5 11 31 -1 21 -1 49 -1 62
1 13 -4 30 -10 37 -6 7 -9 19 -6 26 4 8 6 7 6 -4 1 -10 5 -18 10 -18 18 0 17
84 -1 115 -20 34 -24 80 -7 91 7 4 10 -4 9 -22 -3 -42 -1 -54 8 -54 4 0 8 25
9 55 1 36 -3 55 -10 55 -8 0 -8 3 1 8 7 5 13 31 14 65 1 31 5 54 9 51 14 -8
21 17 8 32 -9 12 -9 20 1 39 7 13 10 35 8 49 -3 14 -1 26 3 26 5 0 9 11 9 25
0 15 -6 25 -14 25 -9 0 -12 7 -9 20 3 11 11 20 18 20 16 0 13 103 -4 160 -14
46 -14 50 6 43 14 -5 15 0 10 38 -3 24 -11 45 -16 47 -6 2 -11 15 -11 28 0 14
4 23 9 20 5 -3 14 1 21 9 9 11 8 21 -3 47 -9 18 -18 44 -22 58 -6 23 -5 24 8
7 13 -16 15 -15 20 11 3 16 3 39 0 51 -3 11 0 28 7 36 6 8 9 18 6 24 -4 5 1
17 11 26 15 16 15 19 0 45 -10 15 -17 36 -16 47 0 10 3 13 6 6 7 -18 23 -16
23 2 0 8 -4 15 -9 15 -16 0 -21 31 -10 52 9 17 9 20 -2 16 -11 -4 -14 5 -14
36 0 22 -4 54 -8 69 -5 19 -4 27 3 22 5 -3 10 2 11 12 0 12 5 9 14 -11 12 -27
13 -28 19 -9 4 13 -1 34 -15 58 -22 37 -32 85 -18 85 4 0 11 -16 16 -36 10
-43 28 -45 28 -4 0 17 3 30 7 30 5 0 8 7 8 15 0 8 -4 15 -9 15 -11 0 -2 74 10
78 13 5 11 50 -3 58 -8 5 -6 11 5 19 13 9 15 18 7 44 -5 19 -5 54 0 88 5 31 7
67 4 80 -5 18 -3 22 10 17 9 -3 16 -2 16 4 0 6 -4 12 -8 14 -5 2 -12 15 -16
30 -5 23 -4 26 11 21 16 -6 16 -5 5 10 -8 9 -11 24 -8 34 3 10 8 62 10 116 2
54 9 103 14 110 6 7 13 46 16 87 3 41 6 93 8 115 2 27 7 39 16 37 8 -1 11 2 7
8 -3 5 -12 10 -19 10 -12 0 -13 16 -8 203 2 73 3 78 22 72 12 -4 20 -2 20 5 0
6 -5 8 -10 5 -6 -3 -13 1 -16 9 -5 14 -29 16 -156 16 -145 0 -149 -1 -143 -20z
m4530 -1183 c10 3 15 -1 15 -12 0 -11 5 -15 15 -11 8 3 15 1 15 -5 0 -6 7 -9
15 -5 14 5 19 -5 16 -32 -2 -9 6 -11 23 -6 20 5 26 2 26 -11 0 -9 5 -13 10
-10 6 3 10 0 10 -8 0 -8 16 -31 35 -51 19 -21 35 -45 35 -54 0 -15 2 -15 10
-2 8 12 10 11 10 -7 0 -20 4 -24 25 -23 10 1 35 -28 35 -40 0 -6 9 -20 20 -32
11 -12 20 -30 20 -41 0 -10 7 -25 15 -34 8 -8 12 -19 9 -24 -3 -6 2 -19 11
-29 9 -10 15 -29 13 -42 -4 -21 -6 -19 -20 15 -10 20 -22 37 -27 37 -6 0 -11
6 -11 13 0 17 -34 57 -47 57 -18 0 -65 51 -60 64 4 9 -10 20 -38 32 -24 10
-42 21 -39 26 3 4 -4 8 -15 8 -12 0 -21 7 -21 15 0 8 -7 15 -15 15 -8 0 -15
-5 -15 -11 0 -5 -5 -7 -10 -4 -14 9 7 35 26 35 20 0 17 14 -6 35 -11 10 -20
24 -20 32 0 7 -3 13 -8 13 -4 0 -36 27 -71 61 -48 45 -61 63 -51 69 9 6 20 0
32 -15 11 -14 25 -22 33 -18z m-1174 -548 c4 -13 7 -18 8 -10 1 11 4 11 15 1
8 -6 12 -18 9 -27 -5 -12 -1 -14 16 -8 15 5 23 1 28 -12 8 -21 53 -78 53 -67
0 5 5 3 12 -4 7 -7 20 -12 30 -12 10 0 18 -7 18 -15 0 -9 11 -20 25 -25 14 -5
26 -16 27 -25 0 -8 1 -21 2 -27 1 -18 28 -48 42 -48 14 0 24 -23 24 -55 0 -16
5 -22 17 -21 12 1 19 -7 21 -24 2 -13 13 -31 24 -38 12 -9 18 -22 15 -33 -3
-11 -2 -21 3 -24 4 -2 6 -17 4 -32 -2 -16 -2 -23 1 -16 4 7 13 4 28 -10 14
-14 18 -25 12 -30 -6 -5 -5 -12 5 -20 28 -23 37 -52 36 -110 -1 -31 1 -57 4
-57 3 0 11 -19 18 -42 7 -24 21 -54 30 -68 17 -27 20 -33 29 -80 3 -16 10 -30
15 -30 5 0 7 -4 4 -9 -4 -5 -1 -22 6 -38 6 -15 10 -32 10 -36 -1 -4 5 -10 13
-13 8 -4 15 -11 15 -16 0 -6 8 -16 17 -23 10 -7 18 -26 18 -41 1 -18 7 -29 16
-29 8 0 14 -7 14 -15 0 -8 4 -20 8 -26 4 -7 2 -26 -4 -44 -9 -25 -9 -34 1 -40
9 -6 6 -11 -11 -21 -13 -7 -29 -12 -35 -11 -7 1 -14 -7 -17 -18 -3 -11 -12
-20 -21 -20 -9 0 -16 -4 -16 -9 0 -12 -83 -9 -91 3 -4 5 -15 5 -25 1 -11 -4
-29 -9 -41 -11 -13 -1 -32 -6 -43 -9 -12 -4 -27 -2 -34 4 -10 8 -25 7 -57 -5
-24 -9 -78 -20 -119 -24 -43 -5 -118 -23 -175 -44 -55 -19 -101 -36 -102 -36
-2 0 -3 -5 -3 -11 0 -6 -7 -17 -15 -25 -8 -9 -15 -20 -15 -25 0 -5 7 -12 15
-15 8 -4 15 -15 15 -25 0 -10 7 -19 15 -19 21 0 57 -53 60 -88 2 -23 -3 -31
-27 -40 -18 -6 -32 -22 -39 -41 -6 -17 -17 -31 -25 -31 -13 0 -16 -7 -13 -26
0 -4 -4 -10 -10 -13 -6 -4 -14 -21 -17 -39 -6 -31 -5 -32 25 -32 31 0 32 -1
25 -37 -3 -21 -7 -42 -8 -46 0 -5 10 -13 23 -18 20 -8 22 -7 12 4 -9 11 -8 17
3 26 11 9 16 9 22 0 5 -9 10 -7 20 5 8 11 14 13 19 6 3 -5 11 -8 16 -5 5 4 9
-1 9 -10 0 -9 -5 -13 -11 -9 -7 4 -9 -2 -7 -17 2 -19 8 -23 27 -21 33 3 39 11
21 25 -21 17 -25 57 -6 57 9 0 16 8 16 17 0 9 12 29 26 44 31 32 64 29 64 -7
0 -13 4 -32 9 -42 5 -9 12 -24 15 -32 4 -8 19 -35 34 -59 28 -45 56 -59 79
-39 9 7 17 7 26 0 8 -7 18 -7 27 -2 20 13 63 13 55 0 -3 -5 1 -10 9 -10 9 0
16 7 16 15 0 16 12 18 47 9 13 -4 20 -11 17 -16 -3 -5 4 -4 16 4 19 11 23 11
36 -7 8 -11 13 -27 11 -36 -4 -15 7 -17 91 -16 64 1 97 -2 99 -10 3 -7 11 -9
19 -6 8 3 14 1 14 -5 0 -5 13 -15 28 -21 35 -15 112 -82 112 -99 0 -6 8 -12
18 -12 13 0 23 -13 32 -40 7 -21 16 -37 20 -35 3 2 14 -22 24 -53 10 -31 25
-69 32 -84 8 -15 15 -48 16 -73 0 -25 7 -52 14 -60 8 -7 14 -29 14 -48 0 -19
8 -52 17 -73 22 -52 32 -147 22 -213 -6 -39 -5 -59 4 -70 8 -10 8 -13 0 -8
-15 9 -23 -111 -7 -123 6 -6 8 -28 4 -57 -3 -28 -1 -63 7 -86 11 -34 11 -112
-1 -124 -3 -3 -1 -16 4 -29 7 -16 6 -27 -3 -35 -7 -7 -11 -29 -9 -54 3 -28 -1
-47 -12 -58 -9 -8 -16 -27 -16 -41 0 -14 -4 -28 -10 -31 -5 -3 -10 -17 -10
-30 0 -13 -5 -27 -10 -30 -6 -4 -8 -10 -5 -15 3 -4 -1 -10 -9 -13 -8 -3 -17
-19 -21 -36 -4 -17 -13 -31 -21 -31 -8 0 -14 -10 -14 -26 0 -18 -6 -28 -21
-31 -11 -3 -18 -11 -15 -18 4 -12 -9 -28 -74 -89 -17 -17 -33 -40 -36 -53 -6
-21 -16 -27 -36 -24 -5 0 -8 -6 -8 -14 0 -9 -7 -18 -15 -21 -8 -4 -15 -13 -15
-21 0 -20 -39 -56 -79 -72 -17 -8 -31 -20 -31 -27 0 -8 -4 -14 -10 -14 -5 0
-16 -13 -25 -30 -9 -18 -23 -30 -35 -30 -11 0 -27 -11 -35 -24 -9 -13 -26 -27
-38 -30 -22 -5 -53 -26 -88 -58 -11 -10 -19 -15 -19 -10 0 4 -5 -1 -11 -11
-14 -23 -85 -56 -121 -57 -17 0 -31 -8 -38 -20 -6 -11 -16 -17 -25 -14 -9 4
-21 2 -28 -4 -7 -6 -41 -14 -77 -18 -36 -4 -68 -11 -71 -16 -4 -6 -31 -10 -60
-11 -34 -1 -58 -7 -65 -16 -8 -10 -13 -11 -18 -3 -10 17 -41 15 -57 -4 -7 -8
-21 -13 -30 -11 -10 3 -28 -4 -40 -14 -12 -10 -30 -19 -41 -19 -10 0 -18 -4
-18 -10 0 -5 -9 -10 -20 -10 -10 0 -29 -4 -42 -9 -50 -20 -64 -24 -80 -22 -9
1 -19 -3 -22 -8 -4 -6 -13 -8 -21 -4 -10 3 -15 -1 -15 -13 0 -17 -7 -19 -70
-16 -38 2 -70 7 -70 10 0 4 -10 7 -22 8 -55 2 -245 48 -270 65 -14 11 -34 19
-45 19 -10 0 -24 9 -31 20 -7 11 -16 20 -21 20 -9 0 -84 63 -105 88 -6 7 -19
22 -28 33 -10 10 -18 21 -18 24 0 3 -9 16 -21 28 -11 12 -23 34 -26 50 -3 15
-12 27 -19 27 -9 0 -14 11 -14 29 0 16 -5 31 -11 33 -6 2 -11 16 -11 30 0 15
-6 29 -12 31 -7 3 -18 31 -26 63 -15 65 -27 87 -43 77 -5 -3 -7 -2 -4 4 3 5
-5 28 -18 51 -13 22 -19 42 -13 44 12 4 0 78 -14 78 -5 0 -6 -4 -3 -10 3 -5
-1 -10 -9 -10 -9 0 -21 -9 -28 -20 -13 -20 -58 -28 -58 -11 0 5 -11 12 -25 15
-14 4 -29 14 -32 24 -7 19 -41 68 -60 90 -7 7 -13 22 -13 32 0 28 -22 73 -43
88 -11 9 -16 21 -12 33 4 12 1 21 -8 25 -10 3 -18 26 -22 57 -4 29 -10 56 -13
61 -10 17 -8 71 5 108 12 37 63 101 63 79 0 -19 22 -12 27 9 5 19 23 29 23 12
0 -5 9 -18 20 -30 17 -18 25 -20 40 -12 15 8 23 6 39 -11 11 -12 24 -18 29
-15 6 3 20 -15 33 -40 12 -26 30 -49 39 -51 9 -2 24 -19 34 -36 9 -18 31 -39
49 -48 26 -13 33 -24 40 -60 5 -24 15 -49 24 -56 8 -6 12 -16 9 -21 -7 -12 87
-98 132 -120 17 -9 32 -19 32 -24 0 -4 9 -8 19 -8 11 0 21 -4 23 -8 2 -4 17
-17 34 -29 24 -17 34 -19 43 -10 10 9 14 8 22 -5 6 -10 15 -18 22 -18 7 0 6 4
-3 10 -11 8 1 10 42 7 66 -3 71 3 62 64 -7 41 -13 46 -32 27 -8 -8 -12 -8 -12
-1 0 6 -11 8 -26 5 -24 -4 -25 -3 -15 15 9 19 7 20 -30 20 -22 0 -41 2 -43 4
-2 2 -6 21 -9 42 -4 34 -3 37 19 37 12 0 29 -9 37 -21 15 -20 35 -10 22 11 -3
6 -1 10 4 10 6 0 11 -7 11 -15 0 -21 30 -19 31 3 0 10 3 12 6 5 5 -14 33 -18
33 -5 0 5 10 20 21 33 l21 24 -7 -24 c-6 -21 -5 -22 8 -10 8 8 13 17 11 20 -2
4 6 10 19 13 21 6 21 7 3 18 -14 8 -24 8 -38 -1 -32 -20 -115 -1 -155 36 -11
9 -10 15 3 27 8 9 17 16 18 16 2 0 27 4 56 10 41 8 62 7 98 -5 26 -9 58 -13
74 -10 16 4 56 4 89 0 52 -6 60 -10 65 -32 6 -22 11 -24 48 -20 22 3 61 10 85
17 39 10 253 6 272 -6 14 -8 119 -13 119 -5 0 5 32 12 70 16 77 8 94 20 62 45
-16 13 -43 17 -113 18 -51 1 -95 6 -99 12 -5 9 -78 6 -107 -5 -7 -2 -13 3 -13
13 0 13 -2 14 -9 3 -6 -9 -14 -10 -22 -5 -8 5 -65 9 -128 10 -72 1 -116 6
-120 13 -10 15 -49 22 -56 10 -10 -15 -25 -10 -18 6 5 14 -7 15 -88 10 -69 -5
-112 -2 -164 10 -38 9 -79 16 -90 16 -11 0 -33 6 -50 13 -20 9 -63 12 -125 11
-104 -3 -196 11 -221 32 -8 7 -21 13 -27 13 -6 0 -16 8 -21 18 -9 15 -12 15
-21 2 -6 -10 -10 -11 -10 -3 0 7 -6 10 -12 8 -8 -3 -14 4 -14 20 -4 57 -13 72
-46 78 -18 3 -41 8 -50 12 -12 5 -18 2 -18 -6 0 -11 -18 -14 -73 -14 l-72 1 0
32 c0 19 -5 32 -12 32 -7 0 -13 10 -13 23 0 13 -3 27 -7 31 -4 4 -8 13 -8 19
-3 51 -19 138 -26 143 -5 2 -6 17 -3 32 3 15 1 51 -4 79 -9 52 2 157 19 178 4
6 13 42 19 79 6 38 17 81 26 97 8 16 14 31 14 35 -1 3 6 11 16 18 9 7 14 18
10 25 -10 16 13 81 28 81 22 0 57 37 62 67 8 47 12 53 39 53 14 0 25 5 25 11
0 14 41 48 58 49 7 0 11 4 7 9 -3 5 5 20 17 34 18 18 34 24 73 26 28 1 52 6
53 11 2 6 8 8 13 5 13 -9 79 6 79 17 0 5 -4 6 -10 3 -5 -3 -22 0 -36 8 -20 11
-24 16 -14 22 9 5 15 4 18 -3 5 -15 42 -16 42 -1 0 5 5 7 11 4 6 -4 8 -13 5
-21 -3 -8 -1 -14 4 -14 6 0 10 7 10 15 0 10 10 15 30 15 22 0 28 -4 24 -15 -5
-11 0 -13 25 -5 17 4 41 16 53 24 31 22 42 20 74 -9 29 -27 44 -25 44 6 0 10
4 19 9 19 4 0 6 -22 3 -49 -3 -32 0 -51 8 -56 19 -12 43 21 43 57 0 18 7 38
16 45 20 14 21 164 1 238 -7 28 -13 63 -13 78 0 23 -3 28 -18 24 -15 -4 -19 0
-19 20 0 19 -4 23 -19 18 -28 -9 -36 23 -8 35 13 5 16 9 7 9 -9 1 -27 14 -40
31 -14 16 -32 29 -41 30 -8 0 -24 8 -35 18 -10 10 -37 23 -59 29 -22 6 -53 16
-70 22 -16 5 -60 17 -97 26 -37 10 -72 23 -77 29 -6 7 -36 23 -67 36 l-56 24
3 60 c2 34 7 63 11 66 9 7 40 116 42 147 0 12 4 25 9 29 4 4 7 20 7 36 0 15 3
27 8 27 24 -4 31 8 42 72 7 42 18 73 26 76 8 3 14 13 14 23 0 10 6 25 14 32 7
8 19 41 26 74 8 36 22 68 37 82 12 13 23 34 23 47 0 14 5 25 11 25 6 0 9 -7 5
-15 -3 -8 -1 -15 5 -15 6 0 9 9 7 19 -3 21 105 131 129 131 7 0 13 6 13 13 0
15 58 49 72 41 5 -3 17 1 27 10 10 9 58 23 107 32 49 9 91 20 94 24 10 14 46
28 93 34 36 6 50 13 57 29 7 17 9 18 9 5 1 -23 17 -23 29 -1 6 9 28 19 53 23
27 3 43 11 41 18 -1 7 6 15 15 19 10 4 22 12 26 20 4 7 15 13 22 13 8 0 15 4
15 10 0 5 17 12 38 16 20 3 42 11 47 18 16 17 76 47 85 41 4 -3 11 2 14 11 4
12 14 14 36 9 31 -7 39 2 18 23 -9 9 -9 15 0 24 9 9 12 9 12 0 0 -22 32 -12
58 18 30 34 43 34 53 -1z m914 -25 c5 -16 13 -31 16 -34 9 -7 59 -112 59 -124
0 -5 6 -17 14 -25 17 -20 46 -107 46 -137 0 -16 7 -24 22 -26 17 -2 24 -12 29
-38 3 -19 11 -45 17 -57 7 -12 12 -38 12 -58 0 -22 4 -34 10 -30 6 3 10 -3 10
-14 0 -11 5 -23 10 -26 6 -3 10 -22 10 -42 0 -20 9 -46 20 -60 11 -14 20 -31
20 -38 0 -7 7 -25 15 -41 11 -22 12 -30 2 -36 -8 -5 -8 -8 -1 -8 6 0 12 -11
12 -24 0 -14 6 -32 15 -40 9 -9 14 -31 14 -53 -1 -21 4 -44 11 -51 6 -7 12
-21 11 -30 0 -14 -2 -13 -10 3 -8 17 -8 16 -3 -5 3 -14 5 -37 5 -51 -1 -15 5
-29 13 -32 10 -4 13 -16 11 -38 -3 -18 0 -38 6 -45 5 -6 9 -16 8 -20 -1 -5 0
-13 1 -19 1 -5 3 -26 5 -45 4 -76 18 -160 26 -160 8 0 9 -9 10 -62 1 -16 4
-28 8 -28 3 0 5 -20 3 -44 -2 -24 5 -77 16 -117 26 -97 35 -149 24 -149 -4 0
-17 28 -28 62 -17 53 -27 67 -62 85 -2 1 -1 11 3 23 4 13 12 19 21 16 10 -4
14 3 14 24 0 17 -4 30 -10 30 -5 0 -10 7 -10 16 0 11 -6 13 -19 9 -14 -4 -23
0 -30 13 -8 16 -6 25 15 45 22 22 24 31 18 64 -3 21 -10 45 -15 53 -6 12 -9
12 -14 -5 -3 -11 -16 -39 -28 -63 -18 -34 -19 -44 -9 -51 8 -5 13 -11 12 -15
-1 -3 1 -34 5 -69 3 -34 8 -75 9 -90 2 -15 8 -33 14 -39 7 -7 12 -24 12 -38 0
-14 5 -31 10 -36 6 -6 13 -37 16 -70 2 -32 8 -68 13 -79 11 -26 31 -111 31
-131 0 -9 -5 -13 -12 -9 -7 4 -2 -2 10 -12 24 -20 28 -60 7 -75 -5 -4 -6 -10
-2 -14 3 -4 13 -1 22 6 13 11 15 9 15 -13 0 -14 -4 -29 -10 -32 -14 -9 -12
-36 4 -54 7 -9 16 -31 20 -50 5 -30 4 -33 -14 -28 -11 3 -20 1 -20 -4 0 -5 9
-9 19 -9 26 0 35 -16 21 -37 -9 -16 -10 -15 -5 5 7 26 2 28 -19 6 -9 -8 -16
-30 -16 -47 l-1 -32 -19 24 c-11 13 -20 29 -20 37 0 14 -12 19 -22 8 -6 -5 7
-43 38 -111 8 -17 14 -37 14 -45 0 -8 4 -18 9 -24 5 -5 12 -24 16 -43 15 -72
-28 -1 -100 164 -7 17 -19 44 -26 60 -7 17 -20 38 -28 48 -8 10 -16 26 -18 36
-4 31 -25 77 -30 65 -2 -6 2 -24 8 -40 7 -16 11 -35 10 -42 -2 -13 31 -125 49
-167 5 -11 12 -36 16 -55 4 -19 14 -46 23 -59 23 -36 40 -90 30 -97 -9 -5 8
-43 25 -55 8 -6 -9 -49 -20 -49 -3 0 -2 5 1 10 3 6 -4 14 -17 19 -20 8 -21 10
-6 16 21 8 13 29 -8 21 -10 -4 -14 3 -14 22 -1 24 -2 25 -13 11 -12 -16 -15
-15 -35 8 -12 14 -19 30 -15 35 3 6 -17 57 -44 112 -51 103 -84 188 -109 286
-8 30 -19 62 -24 72 -19 34 -91 315 -91 356 -1 24 -4 41 -7 37 -7 -6 -37 75
-51 140 -5 22 -18 77 -30 122 -12 46 -22 103 -23 128 -1 25 -6 45 -10 45 -4 0
-7 3 -6 8 5 19 -34 175 -54 219 -6 12 -8 31 -5 42 3 12 1 23 -3 26 -5 3 -11
-3 -13 -12 -3 -11 -5 -8 -6 10 -1 15 4 27 12 27 8 0 9 2 1 8 -13 8 -34 119
-27 138 2 7 -1 32 -8 55 -7 24 -11 50 -10 58 1 7 -1 11 -6 8 -4 -3 -14 1 -21
9 -7 8 -8 14 -2 14 5 0 10 7 10 15 0 8 -4 15 -8 15 -4 0 -16 33 -26 73 -10 39
-24 83 -31 97 -25 50 -53 129 -47 134 3 3 13 6 23 6 10 0 21 9 24 21 6 19 7
20 20 2 11 -14 16 -16 26 -5 9 8 9 12 2 12 -6 0 -14 18 -18 41 -4 23 -15 45
-26 52 -24 15 -26 50 -1 45 9 -2 17 -9 17 -17 0 -8 10 -17 23 -22 27 -10 27
-9 1 35 -11 19 -18 40 -15 45 4 5 2 12 -4 16 -12 8 -13 45 -1 45 5 0 21 -24
36 -52 15 -29 43 -76 61 -104 19 -28 34 -58 34 -68 0 -9 5 -16 10 -16 6 0 10
-7 10 -15 0 -8 4 -15 9 -15 5 0 12 -16 15 -36 4 -19 16 -44 27 -55 10 -10 19
-23 19 -29 0 -19 23 -59 31 -54 5 3 9 -9 9 -25 0 -17 5 -31 10 -31 6 0 10 -9
10 -21 0 -11 7 -27 15 -36 12 -11 14 -27 9 -64 -4 -32 -3 -49 4 -49 6 0 12 10
14 23 3 16 8 7 22 -33 10 -30 21 -59 24 -64 10 -17 10 -96 0 -90 -5 3 -7 12
-4 20 3 7 1 16 -4 19 -13 8 -13 -48 -1 -60 13 -13 60 -193 74 -277 6 -38 14
-68 18 -68 14 0 16 55 3 75 -16 24 -35 155 -23 155 9 0 14 -15 29 -95 7 -33
18 -64 26 -68 8 -4 14 -19 14 -33 0 -14 4 -22 10 -19 6 3 10 1 10 -6 0 -10 3
-10 12 -1 10 10 10 19 0 44 -9 24 -9 35 0 45 9 11 9 16 -2 23 -8 5 -11 18 -8
35 3 15 0 39 -8 53 -10 20 -10 28 -2 33 9 6 9 13 -1 31 -6 13 -13 31 -15 40
-1 9 -8 23 -16 32 -7 10 -13 33 -12 52 1 31 -1 34 -13 24 -13 -10 -15 -8 -15
14 0 14 -5 26 -11 26 -5 0 -7 5 -4 10 4 6 10 8 14 6 4 -3 5 15 1 39 -4 24 -3
50 3 57 7 10 8 9 4 -3 -3 -8 3 -20 13 -27 15 -9 18 -7 18 16 0 15 -4 32 -10
39 -5 6 -11 24 -14 40 -2 15 -7 44 -11 63 -3 19 -5 39 -4 44 3 14 -10 46 -19
46 -5 0 -11 -8 -13 -17 -3 -10 -3 0 -1 22 4 30 -2 53 -21 89 -14 27 -25 44
-25 38 0 -7 -5 -12 -11 -12 -7 0 -9 10 -5 26 6 22 4 25 -9 20 -13 -4 -15 -1
-10 14 12 37 8 80 -8 98 -10 10 -17 28 -17 40 0 12 -4 22 -10 22 -5 0 -7 14
-4 33 4 22 3 28 -4 18 -8 -11 -11 -10 -15 5 -3 11 -10 40 -17 66 -10 36 -16
45 -29 40 -14 -5 -14 -3 -3 11 13 16 8 42 -7 33 -4 -3 -8 4 -8 15 -3 30 20 17
32 -17z m659 -534 c2 -14 9 -38 14 -55 5 -16 17 -55 26 -85 9 -30 27 -91 41
-134 13 -43 22 -83 19 -87 -3 -5 1 -18 9 -30 8 -11 17 -17 19 -12 3 4 3 1 0
-7 -14 -49 -15 -55 -2 -43 18 17 40 5 40 -23 0 -17 -4 -22 -15 -18 -11 5 -15
-1 -15 -21 0 -15 4 -24 10 -20 16 10 40 -14 39 -39 0 -11 -3 -15 -6 -8 -8 19
-23 14 -23 -8 0 -11 5 -20 10 -20 6 0 5 -8 -2 -19 -7 -12 -16 -17 -23 -12 -5
5 -20 12 -32 15 -19 6 -23 2 -29 -29 -4 -26 -2 -41 9 -53 16 -17 17 -69 2
-105 -6 -13 -3 -16 9 -11 12 5 16 0 17 -17 1 -13 3 -37 5 -54 3 -28 2 -29 -12
-11 -8 11 -14 29 -15 40 -1 18 -2 18 -9 -4 -4 -14 -8 -19 -9 -12 -1 6 -9 12
-18 12 -12 0 -14 3 -7 8 12 7 11 132 0 151 -4 5 -4 15 -1 23 3 7 1 19 -4 27
-7 10 -13 11 -30 2 -21 -11 -21 -10 -21 68 0 76 -21 188 -37 200 -5 3 -9 21
-10 39 -2 26 2 32 17 32 12 0 20 -7 20 -17 1 -17 1 -17 11 0 5 9 17 17 25 17
8 0 12 5 9 11 -4 6 0 16 8 22 13 10 14 22 8 67 -7 45 -9 49 -10 20 -2 -34 -2
-34 -13 -10 -14 30 -15 36 -17 56 0 8 -5 13 -10 10 -9 -6 -31 37 -31 62 0 10
-5 23 -10 28 -6 6 -7 25 -3 44 5 29 8 31 14 15 7 -19 8 -19 15 3 8 27 11 25
18 -8z m-3324 -476 c-6 -60 -19 -147 -29 -194 -35 -154 -50 -224 -66 -315 -9
-49 -21 -98 -26 -107 -5 -10 -9 -28 -9 -40 0 -13 -7 -52 -15 -88 -8 -36 -23
-126 -35 -200 -20 -134 -35 -188 -47 -176 -9 8 -4 136 8 205 5 31 12 88 15
126 3 39 12 99 21 135 8 36 18 88 23 115 8 49 55 260 80 360 13 51 18 68 40
120 7 17 16 59 21 94 9 61 17 86 25 78 2 -2 -1 -53 -6 -113z m3526 -238 c-4
-38 -2 -59 6 -68 7 -7 14 -34 15 -60 2 -37 -1 -46 -13 -41 -7 3 -14 0 -14 -6
0 -6 8 -11 18 -11 11 0 7 -5 -12 -15 -33 -18 -42 -14 -28 11 8 14 6 22 -7 34
-17 16 -41 93 -41 134 0 50 17 76 51 76 l32 0 -7 -54z m-1148 -273 c11 -13 27
-23 36 -23 13 0 16 -5 11 -22 -6 -17 -4 -20 10 -15 11 5 15 3 13 -5 -3 -7 -11
-13 -19 -13 -7 0 -18 -9 -24 -21 -8 -17 -15 -19 -35 -12 -19 7 -28 4 -47 -17
-13 -14 -32 -25 -43 -25 -10 0 -26 -3 -36 -7 -11 -4 -15 -3 -11 4 11 17 -36
25 -49 8 -8 -11 -14 -11 -22 -3 -8 8 -15 8 -26 -1 -11 -10 -24 -10 -48 -2 -18
5 -60 11 -93 11 -99 3 -113 5 -121 13 -11 11 47 56 73 57 12 0 23 4 25 8 5 13
88 53 98 47 4 -2 13 2 20 10 7 8 21 15 31 15 10 0 20 4 23 9 3 4 53 8 110 7
95 -1 106 -3 124 -23z m1414 -2896 c2 -26 6 -47 9 -47 4 0 11 -35 16 -77 8
-57 18 -89 37 -118 16 -24 23 -41 16 -43 -8 -3 -8 -8 0 -18 9 -10 9 -22 0 -49
-7 -20 -9 -39 -6 -42 3 -4 7 0 7 8 2 22 18 -62 18 -98 1 -21 -8 -41 -24 -59
l-25 -27 0 34 c0 19 -5 41 -10 49 -7 11 -10 4 -10 -26 0 -25 6 -47 15 -54 8
-7 15 -23 15 -36 0 -13 5 -24 10 -24 6 0 10 18 10 40 0 22 5 40 10 40 6 0 10
-41 10 -102 0 -70 -3 -98 -10 -88 -5 8 -10 28 -10 43 0 17 -4 26 -10 22 -6 -4
-7 -11 -4 -17 5 -7 0 -9 -14 -6 -19 5 -21 0 -27 -78 -4 -46 -5 -90 -2 -98 4
-9 2 -18 -2 -21 -5 -3 -12 -27 -16 -53 -7 -51 -25 -93 -25 -59 0 25 -23 16
-25 -9 -1 -10 -9 -32 -19 -49 l-17 -30 6 47 c6 46 -9 76 -21 44 -3 -9 -9 -16
-14 -16 -4 0 2 25 12 56 10 31 23 77 28 103 10 55 25 405 23 534 -1 48 2 85 7
82 10 -6 23 123 23 228 -1 84 15 95 19 14z m-419 -47 c-2 -2 -8 2 -13 10 -6 8
-10 12 -10 8 0 -3 -3 -13 -6 -21 -4 -10 1 -15 13 -14 13 2 22 -10 32 -42 12
-40 12 -45 -3 -56 -9 -7 -16 -22 -16 -33 0 -11 -5 -24 -11 -28 -6 -3 -9 -15
-6 -25 3 -11 2 -19 -1 -19 -4 0 -8 -14 -9 -32 -1 -17 -12 -60 -23 -94 -11 -35
-20 -72 -20 -82 0 -27 -38 -172 -54 -207 -8 -16 -24 -59 -37 -95 -12 -36 -30
-83 -39 -105 -39 -89 -58 -142 -65 -172 -3 -18 -10 -33 -13 -33 -4 0 -20 -20
-35 -45 -16 -25 -33 -45 -38 -45 -5 0 -14 -11 -19 -24 -5 -13 -21 -39 -37 -57
-15 -19 -44 -56 -63 -84 -19 -27 -52 -67 -72 -88 -21 -21 -38 -42 -38 -45 0
-4 -25 -18 -55 -32 -34 -15 -55 -31 -55 -41 0 -17 -19 -29 -46 -29 -8 0 -14 5
-14 10 0 6 9 10 20 10 14 0 20 7 20 21 0 12 8 23 20 26 11 3 17 9 14 14 -10
16 7 33 18 18 7 -10 8 -8 5 9 -3 12 -2 20 2 18 10 -7 24 6 43 39 9 17 24 29
32 27 9 -2 18 7 22 23 4 16 13 25 25 25 11 0 22 8 25 18 15 44 30 72 38 72 4
0 6 7 3 15 -4 8 0 27 8 42 17 33 19 43 6 43 -16 0 -53 -69 -47 -88 5 -16 2
-18 -24 -14 -24 3 -30 1 -30 -14 0 -16 -2 -17 -10 -4 -8 12 -10 11 -10 -7 0
-13 -5 -23 -11 -23 -6 0 -9 7 -5 15 3 10 -1 15 -13 15 -11 0 -21 -3 -23 -7 -5
-13 -85 -53 -105 -53 -11 0 -29 -9 -41 -20 -23 -22 -56 -27 -50 -7 3 6 19 16
36 22 18 5 32 13 32 18 0 4 5 5 10 2 11 -7 13 15 4 39 -5 13 -9 14 -20 5 -8
-7 -18 -8 -22 -4 -4 4 -1 10 6 12 6 3 12 11 12 19 0 7 11 21 26 30 14 9 32 31
41 47 8 17 22 37 30 45 25 26 45 61 39 71 -3 5 1 11 9 15 8 3 15 13 15 22 0 9
6 14 13 11 9 -3 11 6 9 34 -4 34 -2 37 16 32 18 -4 21 -1 19 29 -1 39 4 58 20
75 16 18 24 16 16 -4 -6 -16 -5 -16 11 -4 9 8 15 20 12 27 -3 7 2 18 10 25 9
7 13 21 11 31 -3 11 0 18 9 18 9 0 14 11 14 31 0 16 4 28 8 25 4 -2 8 3 9 12
2 32 22 95 32 105 6 6 11 26 11 43 0 18 4 35 8 38 5 3 9 22 10 43 1 21 6 49
11 63 6 14 15 44 21 68 6 23 14 42 18 42 4 0 8 16 10 36 1 20 9 50 17 68 7 17
15 44 17 60 2 16 9 31 17 34 14 5 13 -14 -9 -133 -6 -33 -13 -82 -14 -110 -2
-27 -6 -61 -9 -75 -15 -65 -15 -110 -1 -110 8 0 17 8 20 18 16 46 36 82 47 82
8 0 7 4 -2 9 -12 8 -12 12 -2 25 10 12 11 19 2 30 -8 10 -8 16 3 25 8 7 12 21
8 34 -5 22 -5 22 16 3 21 -18 22 -18 28 0 3 11 10 30 16 44 6 14 13 41 15 60
7 57 23 60 24 5 0 -28 2 -45 4 -40 1 6 8 30 16 55 7 25 21 56 31 69 10 13 18
30 18 37 0 7 8 20 17 30 17 16 18 16 24 -7 3 -13 4 -26 2 -29z m-928 2 c3 -7
8 -11 12 -9 8 5 10 -5 14 -110 2 -53 -2 -68 -24 -101 -15 -21 -27 -46 -27 -55
0 -10 -7 -20 -16 -24 -8 -3 -13 -12 -10 -19 3 -8 -7 -25 -22 -39 -15 -14 -21
-25 -14 -25 8 0 12 -6 10 -12 -3 -7 -11 -13 -18 -13 -14 0 -33 -52 -24 -67 3
-4 1 -8 -4 -8 -6 0 -15 -14 -21 -30 -5 -17 -14 -29 -18 -28 -5 2 -29 -18 -54
-44 -25 -27 -42 -48 -37 -48 11 0 10 -38 -2 -45 -5 -3 -10 -18 -10 -33 0 -15
-8 -36 -16 -47 -15 -19 -15 -19 -8 10 7 28 7 29 -10 12 -10 -9 -24 -17 -33
-17 -8 0 -13 -6 -10 -12 2 -7 11 -12 20 -10 11 2 15 -2 11 -13 -3 -8 -12 -15
-20 -15 -8 0 -14 -4 -14 -9 0 -4 -11 -21 -26 -37 -53 -61 -124 -149 -124 -156
0 -6 -6 -14 -69 -89 -17 -20 -31 -41 -31 -46 0 -6 -9 -18 -20 -28 -11 -10 -20
-24 -20 -32 0 -8 -12 -13 -30 -13 -30 0 -41 -14 -17 -23 10 -4 10 -7 0 -18 -7
-7 -13 -21 -13 -31 0 -10 -4 -18 -10 -18 -11 0 -12 -71 -2 -108 4 -13 12 -23
17 -23 6 0 9 -7 7 -15 -2 -7 2 -23 8 -34 9 -17 7 -22 -16 -30 -15 -6 -36 -8
-47 -4 -14 4 -17 3 -12 -7 6 -9 4 -11 -8 -6 -9 3 -19 2 -22 -3 -3 -4 -16 -7
-30 -6 -16 2 -26 -3 -30 -14 -3 -10 -12 -21 -20 -24 -8 -3 -15 -12 -15 -21 0
-8 -4 -14 -9 -13 -15 4 -76 -96 -102 -165 -12 -34 -29 -66 -36 -70 -7 -4 -13
-13 -13 -19 0 -6 -10 -21 -22 -34 -48 -49 -58 -61 -58 -73 0 -27 -59 -101 -80
-101 -8 0 -9 -11 -5 -30 6 -29 5 -30 -27 -30 -22 0 -29 -3 -19 -9 9 -6 10 -11
2 -15 -6 -4 -11 -13 -11 -19 0 -7 4 -6 11 3 8 11 9 8 4 -13 -3 -16 -15 -38
-25 -50 -11 -11 -20 -28 -20 -37 0 -9 -4 -20 -9 -26 -5 -5 -25 -42 -46 -81
-20 -40 -41 -73 -45 -73 -12 0 -30 -58 -30 -96 0 -19 5 -34 10 -34 17 0 11
-25 -9 -37 -13 -8 -17 -19 -14 -37 4 -18 1 -26 -8 -26 -18 0 -38 -44 -46 -100
-3 -25 -12 -50 -20 -57 -10 -7 -13 -21 -10 -34 7 -27 -1 -49 -19 -49 -8 0 -14
-4 -14 -10 0 -5 7 -10 16 -10 14 0 15 -2 3 -17 -10 -11 -10 -14 -1 -9 8 5 12
0 12 -14 0 -17 -6 -21 -27 -20 -16 1 -34 2 -40 1 -15 -1 -18 -31 -3 -31 19 0
10 -37 -15 -64 l-25 -27 0 25 c0 28 -15 43 -23 24 -6 -14 -11 43 -8 80 1 16
-6 25 -24 32 -28 11 -31 35 -15 105 5 23 5 44 0 49 -5 5 -11 -8 -15 -30 -10
-57 -12 -61 -20 -39 -3 11 -10 27 -15 35 -32 52 -63 127 -53 123 8 -3 13 3 13
16 0 12 0 24 1 28 0 4 -4 9 -10 11 -6 2 -11 -7 -11 -20 -1 -22 -1 -22 -12 -4
-8 15 -8 22 3 30 8 6 13 22 12 36 -1 14 0 18 3 8 3 -10 9 -18 14 -18 7 0 7 46
0 109 0 2 -7 -2 -15 -9 -10 -8 -15 -9 -15 -2 0 6 -6 9 -14 6 -15 -6 -29 53
-14 62 4 3 4 14 -2 24 -7 13 -6 20 2 22 16 6 -8 47 -35 58 l-22 9 23 0 c15 1
22 7 22 21 0 22 -16 27 -23 8 -4 -10 -7 -10 -18 0 -10 9 -10 15 -1 24 7 7 12
19 12 28 -1 13 -3 12 -14 -2 -19 -26 -27 -22 -20 8 6 23 4 25 -15 19 -16 -5
-20 -3 -15 9 4 11 1 16 -10 16 -17 0 -23 35 -7 44 4 3 6 17 3 32 -3 16 -7 22
-12 14 -6 -9 -14 -6 -30 10 -18 18 -20 28 -15 62 7 40 7 41 -19 36 -28 -6 -33
1 -14 20 9 9 9 17 -1 36 -11 20 -10 29 4 59 9 19 17 48 17 65 1 20 14 44 39
72 21 22 44 60 51 82 16 48 44 67 36 24 -3 -14 -1 -26 3 -26 5 0 9 18 9 39 0
28 10 54 36 92 20 30 39 52 43 50 3 -2 10 6 16 17 5 11 20 26 33 31 13 6 21
15 18 19 -3 5 10 9 29 10 19 1 35 -3 35 -8 0 -6 7 -10 15 -10 8 0 15 7 15 15
0 18 12 19 28 3 9 -9 15 -9 24 0 9 9 8 12 -4 12 -9 0 -18 7 -22 15 -3 9 -18
15 -35 15 -22 0 -30 5 -35 25 -4 14 -13 25 -21 25 -8 0 -15 5 -15 11 0 6 6 9
14 6 13 -5 30 11 53 51 12 20 11 21 -15 16 -19 -4 -34 1 -51 15 l-24 21 21 23
c12 13 22 29 22 35 0 7 5 12 11 12 6 0 8 -9 4 -20 -4 -11 -2 -20 4 -20 6 0 11
3 12 8 0 4 3 16 5 27 3 11 5 27 5 35 1 8 3 22 6 30 4 8 7 17 7 20 3 13 49 80
55 80 15 0 51 38 51 53 0 23 35 39 73 33 107 -16 117 -16 117 -1 0 8 -9 15
-20 15 -11 0 -20 4 -20 9 0 5 -9 7 -20 4 -14 -4 -20 0 -20 11 0 10 -5 14 -11
10 -8 -4 -9 1 -3 17 4 13 6 29 6 34 -1 6 -3 45 -5 88 -2 59 0 77 10 77 10 0
11 4 2 18 -9 14 -5 24 25 57 20 21 36 49 36 61 0 40 18 71 48 85 17 7 28 18
26 24 -7 18 25 85 41 85 8 0 15 5 15 10 0 12 53 1 58 -12 2 -4 16 -8 30 -7 24
0 25 1 7 10 -16 7 -11 8 20 7 22 -1 44 -7 48 -13 6 -7 10 -6 14 3 5 14 43 17
43 3 0 -6 31 -8 73 -7 39 2 72 5 72 6 0 1 9 4 20 6 99 15 152 27 165 39 9 8
25 12 38 8 16 -4 22 -1 22 11 0 11 9 16 33 16 18 0 58 13 89 29 31 16 67 31
80 33 12 2 23 10 23 18 0 9 9 15 23 15 12 0 39 14 60 30 39 32 105 65 129 65
7 0 25 11 38 24 29 29 44 33 112 33 35 -1 54 -6 58 -15z m392 -379 c2 -6 -12
-28 -32 -49 -20 -21 -39 -43 -43 -49 -4 -6 -32 -26 -62 -45 -30 -18 -60 -40
-67 -48 -7 -8 -28 -16 -46 -17 -19 -1 -40 -6 -47 -10 -32 -20 29 50 93 106 40
35 78 70 85 77 8 7 27 19 43 27 16 9 29 20 29 25 0 12 43 -3 47 -17z m487
-1782 c-15 -29 -43 -61 -70 -80 -25 -17 -42 -36 -39 -41 3 -5 -5 -21 -19 -34
-14 -13 -26 -28 -26 -35 0 -6 -7 -11 -16 -11 -23 0 -111 -96 -130 -142 -11
-25 -23 -38 -35 -38 -11 0 -23 -10 -28 -22 -6 -18 -9 -19 -14 -5 -4 10 -2 17
3 17 6 0 10 9 10 21 0 15 5 19 15 15 10 -3 15 1 15 14 0 10 5 22 10 25 6 3 10
18 10 32 0 16 12 37 30 55 17 15 30 37 30 48 0 11 6 20 14 20 7 0 22 11 32 25
10 14 24 25 31 25 19 0 27 21 12 32 -11 8 -10 9 4 4 9 -3 31 -3 47 1 25 4 30
10 30 34 0 19 5 29 15 29 8 0 15 4 15 10 0 5 7 7 15 4 11 -5 15 1 15 18 0 31
19 51 36 37 10 -8 7 -21 -12 -58z m-3010 -277 c3 -9 6 -29 6 -45 0 -23 4 -29
18 -27 10 2 16 -2 14 -10 -1 -7 7 -27 19 -44 12 -17 22 -43 21 -59 0 -20 9
-39 30 -60 18 -18 31 -42 32 -57 1 -15 5 -25 10 -24 12 5 29 -26 21 -38 -3 -6
-1 -10 4 -10 6 0 11 -15 11 -32 0 -18 6 -45 14 -60 11 -21 14 -61 7 -96 -1 -2
-8 3 -16 11 -18 18 -58 11 -51 -9 3 -9 -2 -14 -13 -14 -14 0 -18 5 -14 19 4
17 0 19 -34 16 -25 -2 -44 3 -56 13 -16 14 -19 14 -27 2 -9 -14 -14 -7 -11 13
0 4 -4 6 -10 5 -6 -2 -14 3 -16 10 -3 6 0 12 6 12 6 0 2 9 -9 20 -11 11 -24
20 -30 20 -5 0 -10 7 -10 16 0 8 -4 13 -9 10 -5 -3 -7 -16 -4 -29 4 -17 2 -16
-11 7 -12 20 -13 32 -6 41 8 9 6 25 -6 54 -9 22 -14 46 -12 53 3 7 -1 32 -8
55 -8 25 -9 43 -4 43 6 0 10 11 10 25 0 14 -4 25 -10 25 -16 0 -12 27 5 34 15
5 22 38 8 34 -5 -2 -9 2 -9 7 -1 6 2 9 7 7 5 -1 14 9 19 24 6 14 14 23 19 20
5 -3 11 3 14 14 7 26 71 29 81 4z m2662 -166 c-8 -45 -19 -88 -32 -123 -40
-114 -39 -274 2 -412 5 -18 2 -23 -12 -23 -12 0 -15 -3 -8 -8 14 -9 64 -171
63 -203 -1 -16 -7 -6 -17 29 -10 29 -22 56 -29 60 -6 4 -14 25 -18 47 -4 22
-11 47 -16 56 -5 9 -11 50 -13 90 -18 272 -18 289 -8 289 6 0 14 21 18 48 4
26 17 67 30 92 13 25 24 51 24 57 0 7 4 13 9 13 5 0 8 -6 7 -12z"/>
<path d="M2640 6179 c0 -5 -7 -6 -15 -3 -8 4 -15 1 -15 -5 0 -20 50 -111 60
-111 6 0 10 -7 10 -15 0 -8 9 -24 20 -35 12 -12 18 -25 14 -31 -4 -7 3 -10 17
-8 13 2 41 -3 62 -10 22 -7 50 -10 65 -6 15 4 86 7 158 6 107 -1 133 1 144 14
7 8 19 15 27 15 8 0 11 5 8 10 -3 6 1 10 9 10 8 0 19 7 24 16 8 14 26 17 97
16 58 0 91 -5 95 -13 6 -9 17 -6 44 10 74 46 31 80 -113 88 -91 5 -102 4 -135
-17 -20 -12 -43 -36 -51 -54 -7 -17 -14 -25 -14 -17 -1 11 -5 10 -16 -5 -10
-14 -14 -15 -15 -4 0 11 -3 11 -12 2 -17 -17 -28 -15 -28 6 0 11 -9 27 -20 37
-11 10 -20 13 -20 7 0 -6 -7 -9 -15 -6 -8 4 -15 1 -15 -5 0 -15 -37 -14 -43 2
-4 9 -6 8 -6 -2 -1 -9 -5 -10 -13 -4 -7 5 -29 16 -48 23 -19 8 -52 32 -73 54
-38 39 -41 40 -113 41 -41 1 -74 -2 -74 -6z"/>
</g>
</svg>
